<svg clip-rule="evenodd" fill-rule="evenodd" height="1.707in" image-rendering="optimizeQuality" shape-rendering="geometricPrecision" text-rendering="geometricPrecision" viewBox="0 0 1707 1707" width="1.707in" xmlns="http://www.w3.org/2000/svg"><g id="Layer_x0020_1"><path d="m920 1015c-16 0-30-13-30-29v-233c0-17 14-30 30-30 17 0 30 13 30 30v233c0 16-13 29-30 29z" fill="#ee9c15"/><path d="m786 1015c-16 0-30-13-30-29v-233c0-17 14-30 30-30 17 0 30 13 30 30v233c0 16-13 29-30 29z" fill="#ee9c15"/><path d="m652 1100c-16 0-29-13-29-30v-317c0-17 13-30 29-30 17 0 30 13 30 30v317c0 17-13 30-30 30z" fill="#ee9c15"/><path d="m652 1266c-62 0-113-50-113-113 0-62 51-113 113-113 63 0 113 51 113 113 0 63-50 113-113 113zm0-166c-29 0-53 24-53 53 0 30 24 54 53 54 30 0 54-24 54-54 0-29-24-53-54-53z" fill="#ee9c15"/><path d="m1054 1266c-62 0-113-50-113-113 0-62 51-113 113-113 63 0 113 51 113 113 0 63-50 113-113 113zm0-166c-29 0-53 24-53 53 0 30 24 54 53 54 30 0 54-24 54-54 0-29-24-53-54-53z" fill="#ee9c15"/><path d="m1054 1100c-16 0-30-13-30-30v-317c0-17 14-30 30-30 17 0 30 13 30 30v317c0 17-13 30-30 30z" fill="#ee9c15"/><g fill="#3e3b3e"><path d="m1266 1707h-826c-16 0-30-14-30-30v-161c0-17 14-30 30-30h826c17 0 30 13 30 30v161c0 16-13 30-30 30zm-796-60h767v-101h-767z"/><path d="m1071 1546h-435c-17 0-30-14-30-30v-161c0-17 13-30 30-30h435c17 0 30 13 30 30v161c0 16-13 30-30 30zm-406-60h376v-101h-376z"/><path d="m1677 1385h-1647c-17 0-30-14-30-30v-928c0-16 13-30 30-30h159c17 0 30 14 30 30s-13 30-30 30h-129v868h1587v-868h-129c-17 0-30-14-30-30s13-30 30-30h159c16 0 30 14 30 30v928c0 16-14 30-30 30z"/><path d="m1347 782h-988c-130 0-237-106-237-237s107-237 237-237c16 0 31 2 46 4 26-72 95-122 174-122 14 0 28 1 41 4 20-110 118-194 233-194s211 81 233 191c6-1 12-1 18-1 81 0 152 53 176 128 22-7 44-10 67-10 131 0 237 107 237 237 0 131-106 237-237 237zm-988-414c-97 0-177 79-177 177s80 178 177 178h988c98 0 178-80 178-178s-80-177-178-177c-26 0-52 6-76 17-9 4-19 4-27-1-9-5-14-13-15-23-8-63-61-111-125-111-12 0-24 1-35 5-9 2-19 0-26-5s-12-13-12-22c-6-95-83-168-178-168-96 0-176 78-177 175 0 10-6 20-14 25-9 6-20 6-29 2-17-8-35-12-54-12-61 0-113 44-124 104-1 9-6 16-14 21-7 4-16 5-25 2-18-6-37-9-57-9z"/><path d="m934 267c-17 0-30-13-30-30 0-28-23-50-51-50s-50 22-50 50c0 17-14 30-30 30-17 0-30-13-30-30 0-61 50-110 110-110 61 0 111 49 111 110 0 17-14 30-30 30z"/><path d="m446 782c-61 0-111-49-111-110s50-110 111-110c16 0 29 13 29 30 0 16-13 29-29 29-28 0-51 23-51 51s23 51 51 51c16 0 29 13 29 30 0 16-13 29-29 29z"/><path d="m1347 782c-61 0-110-49-110-110s49-110 110-110c17 0 30 13 30 30 0 16-13 29-30 29-28 0-50 23-50 51s22 51 50 51c17 0 30 13 30 30 0 16-13 29-30 29z"/><path d="m972 394c-16 0-30-14-30-30 0-71 42-136 106-165 15-7 32-1 39 14s1 33-14 40c-43 20-71 63-71 111 0 16-13 30-30 30z"/><path d="m514 517c-4 0-8-1-12-3-64-30-106-94-106-165 0-17 13-30 30-30 16 0 30 13 30 30 0 47 28 91 71 111 15 7 21 24 14 39-5 11-16 18-27 18z"/></g></g></svg>