<svg clip-rule="evenodd" fill-rule="evenodd" height="1.707in" image-rendering="optimizeQuality" shape-rendering="geometricPrecision" text-rendering="geometricPrecision" viewBox="0 0 1707 1707" width="1.707in" xmlns="http://www.w3.org/2000/svg"><g id="Layer_x0020_1"><path d="m1526 1707h-943c-17 0-30-14-30-30v-717c0-16 13-30 30-30h943c17 0 30 14 30 30v717c0 16-13 30-30 30zm-913-60h884v-657h-884z" fill="#3e3b3e"/><path d="m1400 1395h-690c-17 0-30-13-30-29v-287c0-16 13-30 30-30h690c16 0 29 14 29 30v287c0 16-13 29-29 29zm-661-59h631v-227h-631z" fill="#ee9c15"/><path d="m1677 1517h-151c-16 0-29-13-29-30v-337c0-17 13-30 29-30h151c16 0 29 13 29 30v337c0 17-13 30-29 30zm-121-60h91v-277h-91z" fill="#3e3b3e"/><path d="m583 1506h-151c-16 0-29-13-29-29v-317c0-16 13-29 29-29h151c16 0 30 13 30 29v317c0 16-14 29-30 29zm-121-59h91v-257h-91z" fill="#3e3b3e"/><g fill="#ee9c15"><path d="m895 1311c-49 0-89-40-89-89s40-89 89-89 89 40 89 89-40 89-89 89zm0-118c-16 0-29 13-29 29s13 30 29 30 29-14 29-30-13-29-29-29z"/><path d="m1214 1311c-49 0-89-40-89-89s40-89 89-89 89 40 89 89-40 89-89 89zm0-118c-16 0-29 13-29 29s13 30 29 30 29-14 29-30-13-29-29-29z"/><path d="m765 1556h-38c-16 0-30-14-30-30 0-17 14-30 30-30h38c17 0 30 13 30 30 0 16-13 30-30 30z"/><path d="m920 1556h-39c-16 0-30-14-30-30 0-17 14-30 30-30h39c16 0 29 13 29 30 0 16-13 30-29 30z"/><path d="m1074 1556h-39c-16 0-30-14-30-30 0-17 14-30 30-30h39c16 0 30 13 30 30 0 16-14 30-30 30z"/><path d="m1228 1556h-39c-16 0-29-14-29-30 0-17 13-30 29-30h39c16 0 30 13 30 30 0 16-14 30-30 30z"/><path d="m1382 1556h-38c-17 0-30-14-30-30 0-17 13-30 30-30h38c17 0 30 13 30 30 0 16-13 30-30 30z"/></g><path d="m762 990c-17 0-30-13-30-30v-175c0-17 13-30 30-30 16 0 30 13 30 30v175c0 17-14 30-30 30z" fill="#3e3b3e"/><path d="m897 990c-16 0-30-13-30-30v-113c0-16 14-29 30-29 17 0 30 13 30 29v113c0 17-13 30-30 30z" fill="#3e3b3e"/><path d="m507 898c-55 0-100-44-100-100 0-55 45-100 100-100s100 45 100 100c0 56-45 100-100 100zm0-140c-22 0-40 18-40 40 0 23 18 41 40 41s41-18 41-41c0-22-19-40-41-40z" fill="#3e3b3e"/><path d="m245 706c-135 0-245-110-245-246 0-90 50-173 128-215 0-6 0-13 0-19 0-125 101-226 225-226 101 0 188 66 216 160 6-1 11-1 16-1 135 0 245 110 245 245 0 136-110 246-245 246-51 0-100-16-142-45-45 63-118 101-198 101zm108-646c-91 0-166 74-166 166 0 10 1 21 3 31 3 13-5 27-17 33-69 29-113 96-113 170 0 103 83 186 185 186 69 0 133-38 165-100 4-8 12-14 21-16 10-1 19 2 26 8 34 34 80 52 128 52 102 0 185-83 185-186 0-102-83-185-185-185-11 0-22 1-33 3-8 1-16 0-23-5-6-5-10-12-12-19-14-80-82-138-164-138z" fill="#3e3b3e"/><path d="m622 383h-414c-17 0-30-14-30-30 0-17 13-30 30-30h414c17 0 30 13 30 30 0 16-13 30-30 30z" fill="#ee9c15"/><path d="m437 290h-152c-16 0-30-13-30-30 0-16 14-30 30-30h152c16 0 30 14 30 30 0 17-14 30-30 30z" fill="#ee9c15"/><path d="m660 475h-490c-16 0-30-13-30-29 0-17 14-30 30-30h490c17 0 30 13 30 30 0 16-13 29-30 29z" fill="#ee9c15"/><path d="m1327 848c-118 0-181-218-181-424 0-205 63-424 181-424s181 219 181 424c0 206-63 424-181 424zm0-788c-51 0-122 138-122 364s71 364 122 364 121-138 121-364-70-364-121-364z" fill="#3e3b3e"/><path d="m1084 691c-77 0-110-30-124-55-27-46-10-112 49-184 52-65 133-130 227-185 119-68 244-109 334-109 76 0 110 29 124 54 59 102-98 266-276 369-119 69-244 110-334 110zm486-474c-80 0-194 38-304 102-88 51-163 111-211 171-40 49-57 94-44 116 10 16 36 25 73 25 80 0 193-38 304-102 195-113 280-243 254-287-9-16-35-25-72-25z" fill="#3e3b3e"/><path d="m1570 691c-90 0-215-41-334-110-94-54-175-120-227-185-59-72-76-137-49-184 14-25 47-54 124-54 90 0 215 41 334 109 178 103 335 267 276 369-14 25-48 55-124 55zm-486-474c-37 0-63 9-73 25-13 22 4 67 44 117 48 59 123 119 211 170 110 64 224 102 304 102 37 0 63-9 72-25 26-44-59-174-254-287-111-64-224-102-304-102z" fill="#3e3b3e"/></g></svg>