<svg clip-rule="evenodd" fill-rule="evenodd" height="1.707in" image-rendering="optimizeQuality" shape-rendering="geometricPrecision" text-rendering="geometricPrecision" viewBox="0 0 1707 1707" width="1.707in" xmlns="http://www.w3.org/2000/svg"><g id="Layer_x0020_1"><g fill="#3e3b3e"><path d="m1090 1682c-147 0-266-119-266-265v-1127c0-146 119-265 266-265 146 0 265 119 265 265 0 19-2 37-6 55 83 28 141 106 141 196 0 17-2 34-6 50 126 21 223 131 223 262 0 130-94 239-219 262 1 8 2 16 2 24 0 92-61 172-147 197 8 26 12 53 12 81 0 146-119 265-265 265zm0-1599c-115 0-208 93-208 207v1127c0 114 93 207 208 207 114 0 207-93 207-207 0-32-7-62-20-90-4-8-4-18 1-26s13-14 22-15c75-8 132-71 132-147 0-14-2-28-6-42-2-8-1-17 4-24 5-8 14-12 22-13 110-5 197-96 197-207 0-113-92-206-206-207-9 0-19-5-24-14-5-8-6-19-1-28 9-20 14-41 14-63 0-73-52-134-123-147-9-1-16-6-20-13-5-8-5-16-3-24 7-22 11-44 11-67 0-114-93-207-207-207z"/><path d="m1037 417c-16 0-29-13-29-29 0-34-28-62-63-62s-63 28-63 62c0 16-13 29-29 29s-29-13-29-29c0-66 55-120 121-120 67 0 121 54 121 120 0 16-13 29-29 29z"/><path d="m1037 1446c-16 0-29-13-29-29 0-35-28-63-63-63s-63 28-63 63c0 16-13 29-29 29s-29-13-29-29c0-67 55-121 121-121 67 0 121 54 121 121 0 16-13 29-29 29z"/><path d="m1454 1118c-11 0-21-6-26-16-24-51-75-84-131-84-16 0-29-13-29-29s13-29 29-29c78 0 150 46 183 117 7 15 1 32-14 39-4 2-8 2-12 2z"/><path d="m1156 496c-4 0-8-1-12-3-14-7-21-24-14-39 33-71 105-117 184-117 16 0 29 13 29 29s-13 29-29 29c-56 0-108 33-131 84-5 10-16 17-27 17z"/><path d="m617 1682c-146 0-265-119-265-265 0-28 4-55 12-81-86-25-147-105-147-197 0-8 0-16 1-24-124-23-218-132-218-262 0-131 97-241 223-262-4-16-6-33-6-50 0-90 57-168 140-196-4-18-5-36-5-55 0-146 119-265 265-265s265 119 265 265v1127c0 146-119 265-265 265zm0-1599c-114 0-208 93-208 207 0 23 4 45 11 67 3 8 2 16-2 24-5 7-12 12-20 13-71 13-123 74-123 147 0 22 5 43 14 63 4 9 4 20-1 28-6 9-15 14-25 14-113 1-205 94-205 207 0 111 86 202 196 207 9 1 17 5 22 13 6 7 7 16 5 24-4 14-6 28-6 42 0 76 56 139 132 147 9 1 17 7 22 15 4 8 5 18 1 27-14 27-21 57-21 89 0 114 94 207 208 207s207-93 207-207v-1127c0-114-93-207-207-207z"/><path d="m853 632c-16 0-29-13-29-29 0-35-28-63-62-63-35 0-63 28-63 63 0 16-13 29-29 29s-29-13-29-29c0-67 54-121 121-121 66 0 120 54 120 121 0 16-13 29-29 29z"/><path d="m853 1225c-16 0-29-13-29-29 0-35-28-63-62-63-35 0-63 28-63 63 0 16-13 29-29 29s-29-13-29-29c0-67 54-121 121-121 66 0 120 54 120 121 0 16-13 29-29 29z"/><path d="m253 1118c-4 0-8 0-12-2-15-7-21-24-15-39 33-71 106-117 184-117 16 0 29 13 29 29s-13 29-29 29c-56 0-107 33-131 84-5 10-15 16-26 16z"/><path d="m550 496c-11 0-21-7-26-17-24-51-75-84-131-84-16 0-29-13-29-29s13-29 29-29c79 0 151 46 184 117 6 15 0 32-15 39-3 2-8 3-12 3z"/></g><path d="m1134 848h-154c-16 0-29-13-29-29v-221c0-16 13-29 29-29h154c16 0 29 13 29 29v221c0 16-13 29-29 29zm-125-58h96v-163h-96z" fill="#ee9c15"/><path d="m1321 892c-16 0-29-13-29-29v-171l-28 16c-14 8-31 3-39-11s-3-32 11-39l70-41c9-5 20-5 29 1 9 5 15 14 15 25v220c0 16-13 29-29 29z" fill="#ee9c15"/><path d="m1184 1255h-154c-16 0-29-13-29-29v-220c0-16 13-29 29-29h154c16 0 29 13 29 29v220c0 16-13 29-29 29zm-125-58h96v-162h-96z" fill="#ee9c15"/><path d="m445 831c-16 0-29-13-29-29v-170l-28 15c-14 8-31 3-39-11s-3-31 11-39l70-40c9-5 20-5 29 0s15 15 15 25v220c0 16-13 29-29 29z" fill="#ee9c15"/><path d="m533 1378c-16 0-29-13-29-29v-171l-27 16c-14 8-32 3-40-11s-3-32 11-40l71-40c9-5 20-5 29 0 9 6 14 15 14 25v221c0 16-13 29-29 29z" fill="#ee9c15"/><path d="m736 990h-154c-16 0-29-13-29-29v-221c0-16 13-29 29-29h154c16 0 29 13 29 29v221c0 16-13 29-29 29zm-125-58h96v-163h-96z" fill="#ee9c15"/></g></svg>