<svg clip-rule="evenodd" fill-rule="evenodd" height="1.707in" image-rendering="optimizeQuality" shape-rendering="geometricPrecision" text-rendering="geometricPrecision" viewBox="0 0 1707 1707" width="1.707in" xmlns="http://www.w3.org/2000/svg"><g id="Layer_x0020_1"><path d="m1509 1205c-5 0-9-1-13-3-10-5-16-15-16-26v-43h-140c-16 0-29-13-29-29v-144c0-16 13-29 29-29h140v-43c0-11 6-21 16-26 11-5 23-3 31 4l169 144c7 5 10 13 10 22 0 8-3 16-10 22l-169 144c-5 4-12 7-18 7zm-140-130h140c16 0 29 13 29 29v9l95-81-95-81v9c0 16-13 29-29 29h-140z" fill="#ee9c15"/><g fill="#3e3b3e"><path d="m1678 1707s0 0-1 0h-1448c-126 0-229-103-229-230 0-126 103-229 229-229h1448c16 0 29 13 29 29s-13 29-29 29c-94 0-171 76-171 171s77 172 171 172h1c16 0 29 13 29 29s-13 29-29 29zm-1449-401c-94 0-171 76-171 171s77 172 171 172h1296c-47-43-77-104-77-172s30-129 77-171z"/><path d="m1486 1446h-904c-16 0-29-13-29-29s13-29 29-29h904c16 0 29 13 29 29s-13 29-29 29z"/><path d="m1486 1567h-904c-16 0-29-13-29-29s13-29 29-29h904c16 0 29 13 29 29s-13 29-29 29z"/><path d="m1365 806h-296c-16 0-29-13-29-29s13-29 29-29h296c102 0 185-83 185-185 0-103-83-186-185-186-28 0-55 6-80 18-9 4-19 4-27-1-8-4-13-13-14-22-8-67-64-117-132-117-12 0-25 2-36 5-9 2-18 1-25-4s-12-13-12-22c-6-99-87-176-186-176-101 0-184 82-185 184-1 10-6 19-14 24s-19 6-28 2c-18-9-37-13-57-13-64 0-119 46-130 109-1 9-6 16-14 20-7 5-16 6-24 3-19-7-39-10-59-10-103 0-186 83-186 186 0 102 83 185 186 185h296c16 0 29 13 29 29s-13 29-29 29h-296c-135 0-244-109-244-243 0-135 109-244 244-244 16 0 32 2 48 5 26-75 97-127 179-127 15 0 30 2 44 5 20-114 121-202 240-202s218 85 239 198c7-1 14-1 20-1 85 0 157 55 182 133 22-7 46-11 71-11 134 0 243 109 243 244 0 134-109 243-243 243z"/><path d="m431 806c-62 0-112-50-112-112s50-112 112-112c16 0 29 13 29 29s-13 29-29 29c-30 0-54 24-54 54s24 54 54 54c16 0 29 13 29 29s-13 29-29 29z"/><path d="m1365 806c-62 0-113-50-113-112s51-112 113-112c16 0 29 13 29 29s-13 29-29 29c-30 0-55 24-55 54s25 54 55 54c16 0 29 13 29 29s-13 29-29 29z"/><path d="m976 404c-16 0-29-13-29-29 0-72 43-139 108-169 15-7 32-1 39 14s0 32-14 38c-46 21-75 67-75 117 0 16-13 29-29 29z"/><path d="m502 531c-4 0-8-1-12-2-66-31-108-97-108-170 0-16 13-29 29-29s29 13 29 29c0 50 29 96 74 117 15 7 21 24 14 38-5 11-15 17-26 17z"/></g><path d="m911 1107h-116c-16 0-29-13-29-29v-72c-24-9-47-23-67-39l-62 36c-7 4-15 5-22 3-8-2-14-7-18-14l-58-100c-8-14-3-32 11-40l62-36c-2-12-3-25-3-39 0-13 1-26 3-39l-62-35c-14-8-19-26-11-40l58-100c4-7 10-12 18-14 7-2 15-1 22 3l62 36c20-17 43-30 67-39v-72c0-16 13-29 29-29h116c16 0 29 13 29 29v72c24 9 47 22 68 39l62-36c14-8 31-3 39 11l58 100c4 7 5 15 3 22s-7 14-13 18l-63 35c2 13 4 26 4 39 0 14-2 27-4 39l63 36c6 4 11 10 13 18 2 7 1 15-3 22l-58 100c-4 7-10 12-17 14-8 2-16 1-22-3l-62-36c-21 16-44 30-68 39v72c0 16-13 29-29 29zm-87-58h58v-64c0-13 9-24 21-28 30-8 58-24 81-46 9-10 23-11 34-5l56 32 29-50-56-32c-11-6-16-20-13-32 4-15 6-31 6-47 0-15-2-31-6-46-3-13 2-26 13-32l56-32-29-50-56 32c-11 6-25 4-34-5-23-22-51-38-81-46-12-4-21-15-21-28v-64h-58v64c0 13-8 24-21 28-30 8-58 24-80 46-10 9-24 11-35 5l-55-32-29 50 55 32c11 6 17 19 14 32-4 15-6 31-6 46 0 16 2 32 6 47 3 12-3 26-14 32l-55 32 29 50 55-32c11-6 25-5 35 5 22 22 50 38 80 46 13 3 21 15 21 28z" fill="#ee9c15"/><path d="m853 904c-70 0-127-57-127-127s57-127 127-127 127 57 127 127-57 127-127 127zm0-196c-38 0-69 31-69 69s31 69 69 69 69-31 69-69-31-69-69-69z" fill="#ee9c15"/><path d="m198 1205c-7 0-14-3-19-7l-169-144c-6-6-10-14-10-22 0-9 4-17 10-22l169-144c9-7 21-9 31-4s17 15 17 26v43h140c16 0 29 13 29 29v144c0 16-13 29-29 29h-140v43c0 11-7 21-17 26-4 2-8 3-12 3zm-124-173 95 81v-9c0-16 13-29 29-29h140v-86h-140c-16 0-29-13-29-29v-9z" fill="#ee9c15"/></g></svg>